<svg width="1240" height="239" viewBox="0 0 1240 239" fill="none" xmlns="http://www.w3.org/2000/svg">
<g clip-path="url(#clip0_52_18413)">
<path d="M1230.68 211.696H3.32031V238.646H1230.68V211.696Z" fill="#FFA3B5"/>
<path d="M67.7305 2.50537L130.295 157.791H166.156L103.592 2.50537H67.7305Z" fill="#F9423A"/>
<path d="M55.2079 81.019H28.258V105.903H3.37402V132.853H28.258V157.737H55.2079V132.853H80.0918V105.903H55.2079V81.019Z" fill="#F9423A"/>
<path d="M258.534 64.7551C233.65 58.5881 226.096 53.7778 226.096 44.4347C226.096 35.7392 235.346 29.3563 247.341 29.3563C267.199 29.3563 285.7 42.1529 285.7 42.1529L301.703 17.5773C285.847 6.05499 266.726 -0.102775 247.125 0.0012978C214.224 0.0012978 191.838 19.1807 191.838 47.9499C191.838 71.2613 207.595 85.1679 240.958 93.4009C265.842 99.568 273.366 104.347 273.366 113.937C273.366 124.699 263.776 131.081 248.019 131.081C224.276 131.081 204.85 112.796 204.85 112.796L186.103 136.786C202.888 151.701 224.488 160.065 246.94 160.344C285.083 160.344 307.685 142.305 307.685 111.686C307.624 86.7714 293.47 73.2964 258.534 64.7551Z" fill="#F9423A"/>
<path d="M407.826 64.7545C382.942 58.5874 375.418 53.7771 375.418 44.4341C375.418 35.7386 384.669 29.3557 396.633 29.3557C416.522 29.3557 434.992 42.1523 434.992 42.1523L450.995 17.7C435.157 6.12796 416.032 -0.0740796 396.417 0.00066779C363.547 0.00066779 341.161 19.1801 341.161 47.9493C341.161 71.2607 356.917 85.1673 390.25 93.4003C415.134 99.5673 422.689 104.347 422.689 113.937C422.689 124.698 413.099 131.081 397.342 131.081C373.568 131.081 354.173 112.796 354.173 112.796L335.456 136.785C352.213 151.687 373.779 160.05 396.201 160.343C434.314 160.343 456.916 142.305 456.916 111.686C456.916 86.7708 442.762 73.2958 407.826 64.7545Z" fill="#F9423A"/>
<path d="M496.841 157.791H601.218V128.806H530.42V93.8699H590.025V65.1007H530.42V31.5212H601.218V2.50537H496.841V157.791Z" fill="#F9423A"/>
<path d="M932.764 77.4193V77.0801C938.525 73.7906 943.274 68.9836 946.492 63.1824C949.711 57.3813 951.276 50.8083 951.018 44.179C951.018 18.1542 932.98 2.61328 902.607 2.61328H837.854V157.776H899.277C934.922 157.776 953.639 142.358 953.855 112.787C953.763 95.8896 946.702 84.018 932.764 77.4193ZM871.34 29.6865H896.687C910.378 29.6865 917.47 35.8536 917.47 47.7251C917.47 59.5966 910.378 65.7636 896.687 65.7636H871.34V29.6865ZM899.092 130.61H871.34V91.7885H899.092C912.567 91.7885 919.875 98.4181 920.091 111.215C920.307 124.011 912.444 130.61 898.969 130.61H899.092Z" fill="#F9423A"/>
<path d="M718.345 89.9847H716.742L677.242 2.50537H644.834V157.791H675.638V66.6733H676.347L706.011 132.907H729.076L758.77 66.6733H759.448V157.791H790.283V2.50537H757.845L718.345 89.9847Z" fill="#F9423A"/>
<path d="M1202.04 2.50537L1169.85 61.8938H1169.17L1136.98 2.50537H1101.33L1152.27 95.4733V157.791H1185.85V95.4733L1236.76 2.50537H1202.04Z" fill="#F9423A"/>
<path d="M1030.99 2.50537H997.444V157.791H1103.18V127.881H1030.99V2.50537Z" fill="#F9423A"/>
</g>
<defs>
<clipPath id="clip0_52_18413">
<rect width="1240" height="238.633" fill="white"/>
</clipPath>
</defs>
</svg>
